HIERARCHY
ROOT Hips
{
	OFFSET -0.001795 -0.223333 0.028219
	CHANNELS 6 Xposition Yposition Zposition Zrotation Yrotation Xrotation 
	JOINT LeftUpLeg
	{
		OFFSET 0.069520 -0.091406 -0.006815
		CHANNELS 3 Zrotation Yrotation Xrotation
		JOINT LeftLeg
		{
			OFFSET 0.034277 -0.375199 -0.004496
			CHANNELS 3 Zrotation Yrotation Xrotation
			JOINT LeftFoot
			{
				OFFSET -0.013596 -0.397961 -0.043693
				CHANNELS 3 Zrotation Yrotation Xrotation
				JOINT LeftToe
				{
					OFFSET 0.026358 -0.055791 0.119288
					CHANNELS 3 Zrotation Yrotation Xrotation
					End Site
					{
						OFFSET 0.000000 0.000000 0.000000
					}
				}
			}
		}
	}
	JOINT RightUpLeg
	{
		OFFSET -0.067670 -0.090522 -0.004320
		CHANNELS 3 Zrotation Yrotation Xrotation
		JOINT RightLeg
		{
			OFFSET -0.038290 -0.382569 -0.008850
			CHANNELS 3 Zrotation Yrotation Xrotation
			JOINT RightFoot
			{
				OFFSET 0.015774 -0.398415 -0.042312
				CHANNELS 3 Zrotation Yrotation Xrotation
				JOINT RightToe
				{
					OFFSET -0.025372 -0.048144 0.123348
					CHANNELS 3 Zrotation Yrotation Xrotation
					End Site
					{
						OFFSET 0.000000 0.000000 0.000000
					}
				}
			}
		}
	}
	JOINT Spine
	{
		OFFSET -0.002533 0.108963 -0.026696
		CHANNELS 3 Zrotation Yrotation Xrotation
		JOINT Spine1
		{
			OFFSET 0.005487 0.135180 0.001092
			CHANNELS 3 Zrotation Yrotation Xrotation
			JOINT Spine2
			{
				OFFSET 0.001457 0.052922 0.025425
				CHANNELS 3 Zrotation Yrotation Xrotation
				JOINT Neck
				{
					OFFSET -0.002778 0.213870 -0.042857
					CHANNELS 3 Zrotation Yrotation Xrotation
					JOINT Head
					{
						OFFSET 0.005152 0.064970 0.051349
						CHANNELS 3 Zrotation Yrotation Xrotation
						End Site
						{
							OFFSET 0.000000 0.000000 0.000000
						}
					}
				}
				JOINT LeftShoulder
				{
					OFFSET 0.078845 0.121749 -0.034090
					CHANNELS 3 Zrotation Yrotation Xrotation
					JOINT LeftArm
					{
						OFFSET 0.090977 0.030469 -0.008868
						CHANNELS 3 Zrotation Yrotation Xrotation
						JOINT LeftForeArm
						{
							OFFSET 0.259612 -0.012772 -0.027456
							CHANNELS 3 Zrotation Yrotation Xrotation
							JOINT LeftHand
							{
								OFFSET 0.249234 0.008986 -0.001171
								CHANNELS 3 Zrotation Yrotation Xrotation
								End Site
								{
									OFFSET 0.000000 0.000000 0.000000
								}
							}
						}
					}
				}
				JOINT RightShoulder
				{
					OFFSET -0.081759 0.118833 -0.038615
					CHANNELS 3 Zrotation Yrotation Xrotation
					JOINT RightArm
					{
						OFFSET -0.096012 0.032551 -0.009143
						CHANNELS 3 Zrotation Yrotation Xrotation
						JOINT RightForeArm
						{
							OFFSET -0.253742 -0.013329 -0.021401
							CHANNELS 3 Zrotation Yrotation Xrotation
							JOINT RightHand
							{
								OFFSET -0.255298 0.007772 -0.005559
								CHANNELS 3 Zrotation Yrotation Xrotation
								End Site
								{
									OFFSET 0.000000 0.000000 0.000000
								}
							}
						}
					}
				}
			}
		}
	}
}
MOTION
Frames: 8
Frame Time: 0.05000000
-37.526012 0.941657 27.473728 16.369834 -81.815202 -10.910686 2.892887 0.496760 -5.437486 -6.075273 9.678489 24.590501 -5.422390 -12.821920 -43.465952 0.000000 0.000000 0.000000 -19.450534 8.789397 -47.882654 25.775169 1.506292 31.830973 -11.712035 -31.909362 -5.453706 0.000000 0.000000 0.000000 -1.568225 0.098414 -3.855200 1.691213 -0.287691 -21.946591 -4.220220 -8.809710 37.161550 0.614572 -4.101500 -38.658271 0.000000 0.000000 0.000000 15.076787 3.653721 -7.207689 -95.956488 -14.593538 38.591376 41.645750 -57.741455 -17.054848 0.000000 0.000000 0.000000 -18.702634 -7.386316 7.072210 88.803921 0.421310 -44.924433 33.345543 22.367963 4.559013 0.000000 0.000000 0.000000 
-38.384777 0.948740 27.403471 14.448763 -81.572006 -8.482102 3.404731 0.552039 -6.401844 -2.895287 10.666514 31.095874 -5.156731 -13.261099 -41.629435 0.000000 0.000000 0.000000 -16.650758 8.474191 -45.867776 24.607645 1.859239 33.231410 -12.228566 -31.946406 -8.444906 0.000000 0.000000 0.000000 -1.354299 0.135915 -4.874859 1.967293 -0.367932 -21.638514 -3.794101 -9.219478 37.113119 0.897095 -4.173415 -38.680825 0.000000 0.000000 0.000000 14.552447 3.966288 -7.143483 -96.377357 -12.439340 36.564380 38.277934 -59.237232 -15.623993 0.000000 0.000000 0.000000 -18.429383 -6.520681 7.171861 87.526783 2.358526 -42.313428 34.229949 25.519644 5.378561 0.000000 0.000000 0.000000 
-39.143154 0.959390 27.302771 14.986062 -80.965692 -6.288794 3.090182 0.481943 -14.111999 4.985880 11.658953 44.303222 -4.974931 -15.260097 -35.206112 0.000000 0.000000 0.000000 -15.847737 8.053699 -45.305729 24.139098 1.823085 31.976432 -12.749035 -32.575639 -10.074847 0.000000 0.000000 0.000000 -1.810723 0.334116 -8.484577 2.112158 -0.433913 -21.080926 -3.561946 -9.370970 37.750784 1.300105 -4.277221 -38.280807 0.000000 0.000000 0.000000 14.189246 3.916609 -6.950649 -95.786331 -10.996222 34.472422 28.167117 -59.340045 -10.300750 0.000000 0.000000 0.000000 -17.971212 -5.762030 7.084751 87.490783 3.793054 -40.722969 34.719500 27.000206 5.912813 0.000000 0.000000 0.000000 
-39.794792 0.970973 27.205654 13.721786 -80.541303 -3.767511 2.387228 0.887978 -21.094306 12.840030 10.820283 55.316610 -4.845253 -16.038701 -27.029172 0.000000 0.000000 0.000000 -13.216447 7.467763 -43.028912 21.621596 2.104373 30.880298 -13.497941 -31.683939 -13.159840 0.000000 0.000000 0.000000 -1.714866 0.430083 -9.948381 2.001153 -0.428964 -20.833672 -2.806558 -8.509016 38.169521 1.874900 -4.456064 -37.359459 0.000000 0.000000 0.000000 15.077740 4.044228 -7.222415 -95.268102 -8.647172 31.743657 16.847494 -57.866022 -4.389996 0.000000 0.000000 0.000000 -18.664975 -5.876709 7.419288 87.888936 4.677159 -40.173523 37.469120 29.396051 7.528196 0.000000 0.000000 0.000000 
-40.352051 0.979600 27.131752 15.885918 -80.244724 -5.825131 1.119384 1.636166 -27.228586 17.902482 8.982444 61.914504 -4.181198 -14.682455 -22.580652 0.000000 0.000000 0.000000 -10.969146 6.635628 -39.528900 19.256875 2.316612 29.322608 -14.564865 -30.169253 -15.589871 0.000000 0.000000 0.000000 -2.460780 0.396937 -9.572639 2.177575 -0.420633 -21.119881 -2.226871 -7.848675 37.969417 2.618338 -4.678907 -36.713075 0.000000 0.000000 0.000000 15.159216 4.736533 -7.444837 -93.799169 -4.973714 26.919487 5.998920 -54.789398 1.109524 0.000000 0.000000 0.000000 -18.964368 -5.538674 7.644396 87.862659 6.367406 -38.626248 39.908002 31.712436 9.040942 0.000000 0.000000 0.000000 
-40.822582 0.986564 27.088459 18.993854 -80.557584 -8.654788 1.214792 2.908214 -31.699616 16.102472 9.058758 60.750472 -3.397985 -12.574278 -23.707751 0.000000 0.000000 0.000000 -8.928964 5.811821 -36.183303 16.852811 2.535845 28.261588 -15.352538 -26.458803 -18.067840 0.000000 0.000000 0.000000 -2.659377 0.425673 -9.847315 2.065782 -0.365873 -21.383938 -1.646777 -6.494907 38.367527 3.046289 -4.673196 -37.018061 0.000000 0.000000 0.000000 15.008127 5.893636 -7.798704 -92.284681 -0.806610 21.757432 0.088272 -50.913208 3.731401 0.000000 0.000000 0.000000 -18.875212 -5.782976 7.498437 87.861887 7.825268 -37.033223 41.783245 32.220406 9.832169 0.000000 0.000000 0.000000 
-41.222744 0.991528 27.089237 22.085986 -79.848595 -11.417635 -0.047944 2.782571 -33.177716 10.041760 9.041248 51.504116 -2.344455 -7.649356 -29.102821 0.000000 0.000000 0.000000 -8.795705 5.017857 -33.457297 15.656774 2.493125 27.231134 -15.990264 -24.903759 -19.609530 0.000000 0.000000 0.000000 -3.425218 0.431239 -9.845632 2.031955 -0.359184 -21.406380 -1.056174 -5.557122 38.327182 3.229928 -4.499265 -37.652430 0.000000 0.000000 0.000000 14.224248 7.139676 -7.970699 -91.081788 1.989985 17.772416 -1.197608 -46.969892 4.040599 0.000000 0.000000 0.000000 -19.246939 -5.394607 7.731444 88.913073 10.032894 -35.553756 42.418690 33.809581 11.001504 0.000000 0.000000 0.000000 
-41.593639 0.993179 27.120232 19.041029 -79.135074 -8.008103 0.038127 2.654233 -33.256471 4.444845 7.857245 40.859773 -2.229147 -3.285908 -30.263227 0.000000 0.000000 0.000000 -7.655523 4.082122 -30.020783 14.471693 2.196332 24.184315 -16.879077 -23.803304 -20.509373 0.000000 0.000000 0.000000 -3.434302 0.440945 -10.082773 2.114296 -0.356821 -21.458090 -0.753368 -5.431111 38.373741 3.370245 -4.414791 -37.950441 0.000000 0.000000 0.000000 13.958645 8.183543 -8.226056 -90.576992 4.783845 14.856070 -0.456515 -44.483519 3.499291 0.000000 0.000000 0.000000 -19.283619 -4.735479 7.860426 89.418220 11.778692 -34.073032 43.312838 33.556432 11.374856 0.000000 0.000000 0.000000 
